<svg width="100" height="100" viewBox="0 0 100 100" fill="none" xmlns="http://www.w3.org/2000/svg">
<path fill-rule="evenodd" clip-rule="evenodd" d="M81.25 55.6514H18.75V84.5764C18.75 85.9561 19.6547 87.1732 20.9766 87.5701C27.2563 89.4529 44.9156 94.7514 49.1016 96.0076C49.6875 96.1826 50.3125 96.1826 50.8984 96.0076C55.0844 94.7514 72.7438 89.4529 79.0234 87.5701C80.3453 87.1732 81.25 85.9561 81.25 84.5764C81.25 77.3326 81.25 55.6514 81.25 55.6514Z" fill="#EFEEF9"/>
<path fill-rule="evenodd" clip-rule="evenodd" d="M81.25 55.6514H50C50 55.6514 49.6968 96.1389 50 96.1389C50.3031 96.1389 50.6046 96.0951 50.8984 96.0076C55.0843 94.7514 72.7437 89.4529 79.0234 87.5701C80.3453 87.1732 81.25 85.9561 81.25 84.5764C81.25 77.3326 81.25 55.6514 81.25 55.6514Z" fill="#C8C1F5"/>
<path fill-rule="evenodd" clip-rule="evenodd" d="M49.9982 65.7904L18.7482 55.6514C18.7482 55.6514 13.2685 63.7764 10.8185 67.4076C10.5435 67.8154 10.4763 68.3264 10.6357 68.7904C10.7966 69.2545 11.1638 69.6154 11.631 69.7686C17.5669 71.6967 35.1388 77.4061 39.7482 78.9029C40.4091 79.1186 41.1341 78.8701 41.5248 78.2936C43.6201 75.2014 49.9982 65.7904 49.9982 65.7904Z" fill="#D7D4EE"/>
<path fill-rule="evenodd" clip-rule="evenodd" d="M81.25 55.6514L50 65.7904C50 65.7904 56.3781 75.2014 58.4734 78.2936C58.8641 78.8701 59.5891 79.1186 60.25 78.9029C64.8594 77.4061 82.4313 71.6967 88.3672 69.7686C88.8344 69.6154 89.2016 69.2545 89.3625 68.7904C89.5219 68.3264 89.4547 67.8154 89.1797 67.4076C86.7297 63.7764 81.25 55.6514 81.25 55.6514Z" fill="#D7D4EE"/>
<path fill-rule="evenodd" clip-rule="evenodd" d="M42.4369 34.3532C42.0462 33.7797 41.3228 33.5313 40.6619 33.7469C36.0556 35.2422 18.4791 40.9532 12.5431 42.8828C12.0759 43.0344 11.7072 43.3953 11.5478 43.8594C11.3884 44.3235 11.4556 44.836 11.7306 45.2422C13.9869 48.5891 18.7509 55.6516 18.7509 55.6516L50.0009 45.4782C50.0009 45.4782 44.3884 37.2235 42.4369 34.3532Z" fill="#EFEEF9"/>
<path fill-rule="evenodd" clip-rule="evenodd" d="M88.2703 45.2422C88.5453 44.836 88.6125 44.3235 88.4531 43.8594C88.2937 43.3953 87.925 43.0344 87.4578 42.8828C81.5219 40.9532 63.9453 35.2422 59.3391 33.7469C58.6781 33.5313 57.9547 33.7797 57.5641 34.3532C55.6125 37.2235 50 45.4782 50 45.4782L81.25 55.6516C81.25 55.6516 86.0141 48.5891 88.2703 45.2422Z" fill="#D7D4EE"/>
<path fill-rule="evenodd" clip-rule="evenodd" d="M81.25 55.652L50 45.4785L18.75 55.652L50 65.791L81.25 55.652Z" fill="#EFEEF9"/>
<path fill-rule="evenodd" clip-rule="evenodd" d="M50 65.791V45.4785L18.75 55.652L50 65.791Z" fill="#C8C1F5"/>
<path fill-rule="evenodd" clip-rule="evenodd" d="M43.7225 49.9663C43.0725 49.5413 42.4866 49.0866 41.9663 48.61C41.3319 48.0272 40.3429 48.0694 39.7585 48.7054C39.1757 49.3397 39.2179 50.3288 39.8538 50.9116C40.4929 51.4991 41.2132 52.0585 42.0132 52.5819C42.735 53.0538 43.7038 52.8507 44.1757 52.1288C44.6475 51.4069 44.4444 50.4382 43.7225 49.9663Z" fill="#9C6ED9"/>
<path fill-rule="evenodd" clip-rule="evenodd" d="M38.8545 45.1655C38.3905 44.5358 37.9983 43.903 37.6764 43.2702C37.2858 42.5014 36.3436 42.1952 35.5749 42.5858C34.8061 42.9764 34.4999 43.9186 34.8905 44.6874C35.2874 45.4655 35.7686 46.2452 36.3389 47.0186C36.8499 47.7124 37.828 47.8608 38.5233 47.3499C39.217 46.8374 39.3655 45.8592 38.8545 45.1655Z" fill="#9C6ED9"/>
<path fill-rule="evenodd" clip-rule="evenodd" d="M36.5688 38.7889C36.5844 38.1592 36.6766 37.5483 36.8454 36.9623C37.0829 36.1342 36.6032 35.267 35.7735 35.0295C34.9454 34.792 34.0782 35.2717 33.8407 36.1014C33.6016 36.9389 33.4672 37.8123 33.4438 38.7108C33.4235 39.5733 34.1047 40.2905 34.9672 40.3108C35.8297 40.3326 36.5469 39.6514 36.5688 38.7889Z" fill="#9C6ED9"/>
<path fill-rule="evenodd" clip-rule="evenodd" d="M38.9734 33.5708C39.375 33.1989 39.825 32.8552 40.3172 32.5442C41.0468 32.0833 41.2656 31.1177 40.8062 30.3896C40.3453 29.6599 39.3797 29.4411 38.65 29.9005C37.989 30.3177 37.389 30.7786 36.85 31.2786C36.2172 31.8646 36.1797 32.8536 36.7656 33.4864C37.3515 34.1192 38.3406 34.1567 38.9734 33.5708Z" fill="#9C6ED9"/>
<path fill-rule="evenodd" clip-rule="evenodd" d="M44.7843 30.8754C45.5703 30.7301 46.4031 30.6363 47.2812 30.6004C48.1437 30.5629 48.8125 29.8332 48.7765 28.9723C48.7406 28.1113 48.0109 27.441 47.1484 27.477C46.1172 27.5207 45.139 27.6317 44.2156 27.802C43.3687 27.9598 42.8062 28.7754 42.964 29.6223C43.1203 30.4707 43.9359 31.0317 44.7843 30.8754Z" fill="#9C6ED9"/>
<path fill-rule="evenodd" clip-rule="evenodd" d="M52.9286 30.7828C54.2615 30.7984 55.5021 30.7516 56.6536 30.65C57.513 30.5734 58.149 29.8141 58.0724 28.9547C57.9958 28.0969 57.2365 27.4609 56.3771 27.5375C55.3224 27.6297 54.1865 27.6734 52.9646 27.6578C52.1021 27.6484 51.3943 28.3406 51.3849 29.2016C51.374 30.0641 52.0661 30.7734 52.9286 30.7828Z" fill="#9C6ED9"/>
<path fill-rule="evenodd" clip-rule="evenodd" d="M61.7885 29.6929C63.3354 29.2194 64.6416 28.6132 65.7354 27.9179C66.4619 27.4538 66.6776 26.4882 66.2135 25.76C65.751 25.0335 64.7838 24.8179 64.0557 25.2819C63.176 25.8413 62.1213 26.3225 60.8744 26.7038C60.051 26.9569 59.5854 27.8304 59.8385 28.6554C60.0901 29.4804 60.9651 29.9444 61.7885 29.6929Z" fill="#9C6ED9"/>
<path fill-rule="evenodd" clip-rule="evenodd" d="M69.7414 23.5438C70.4789 22.0188 70.7617 20.4063 70.6898 18.8516C70.6492 17.9891 69.9164 17.3234 69.0554 17.3641C68.1945 17.4047 67.5273 18.1359 67.5679 18.9969C67.6179 20.0531 67.4273 21.1484 66.9273 22.1844C66.5523 22.9609 66.8773 23.8969 67.6539 24.2719C68.4304 24.6469 69.3664 24.3203 69.7414 23.5438Z" fill="#9C6ED9"/>
<path fill-rule="evenodd" clip-rule="evenodd" d="M68.7457 13.3268C67.6067 11.7878 66.0613 10.7159 64.377 10.3706C63.5317 10.1987 62.7051 10.7425 62.5317 11.5878C62.3598 12.4331 62.9051 13.2596 63.7488 13.4331C64.7207 13.6315 65.577 14.2987 66.2348 15.1878C66.7488 15.88 67.7285 16.0253 68.4207 15.5128C69.1145 14.9987 69.2598 14.019 68.7457 13.3268Z" fill="#9C6ED9"/>
<path fill-rule="evenodd" clip-rule="evenodd" d="M48.332 10.6736C50.0227 1.10018 64.6742 1.71893 56.1445 10.6736H48.332Z" fill="#EFEEF9"/>
<path fill-rule="evenodd" clip-rule="evenodd" d="M48.332 13.0986C50.0227 22.6705 64.6742 22.0533 56.1445 13.0986H48.332Z" fill="#EFEEF9"/>
<path fill-rule="evenodd" clip-rule="evenodd" d="M48.1934 13.4639H58.6559C59.5184 13.4639 60.2184 12.7639 60.2184 11.9014C60.2184 11.0389 59.5184 10.3389 58.6559 10.3389H48.1934C47.3324 10.3389 46.6309 11.0389 46.6309 11.9014C46.6309 12.7639 47.3324 13.4639 48.1934 13.4639Z" fill="#9C6ED9"/>
</svg>
