<svg width="24" height="24" viewBox="0 0 24 24" fill="none" xmlns="http://www.w3.org/2000/svg">
<path d="M11.8277 6.17383L18.4397 17.627M18.0934 17.0253L1.79057 20.8121L0.75 19.0018L12.1791 6.77554" stroke="black" stroke-width="1.5" stroke-linecap="round" stroke-linejoin="round"/>
<path d="M5.33901 19.9877L6.23729 21.5426C6.56306 22.1007 7.09718 22.5065 7.72216 22.6708C8.03161 22.7521 8.35406 22.7717 8.67109 22.7284C8.98812 22.6852 9.29353 22.5799 9.56987 22.4186C9.8462 22.2573 10.0881 22.0431 10.2816 21.7883C10.4752 21.5336 10.6167 21.2432 10.6981 20.9337C10.7794 20.6243 10.799 20.3018 10.7557 19.9848C10.7125 19.6677 10.6072 19.3623 10.4459 19.086L10.3019 18.8374M12.2784 2.89971V0.75M20.5122 11.1334H22.6602M1.89844 11.1334H4.04644M4.93615 3.79114L6.45501 5.31171M18.1002 5.31171L19.619 3.79114" stroke="black" stroke-width="1.5" stroke-linecap="round" stroke-linejoin="round"/>
</svg>
