<svg width="20" height="20" viewBox="0 0 20 20" fill="none" xmlns="http://www.w3.org/2000/svg">
<path d="M12.5 7.91667C12.5 9.29742 11.3807 10.4167 10 10.4167C8.61925 10.4167 7.5 9.29742 7.5 7.91667C7.5 6.53596 8.61925 5.41667 10 5.41667C11.3807 5.41667 12.5 6.53596 12.5 7.91667Z" stroke="#171135" stroke-width="1.25"/>
<path d="M10 1.66667C13.3823 1.66667 16.25 4.52336 16.25 7.98909C16.25 11.51 13.3357 13.9808 10.6437 15.661C10.4476 15.7739 10.2257 15.8333 10 15.8333C9.77425 15.8333 9.55242 15.7739 9.35625 15.661C6.66937 13.9644 3.75 11.5222 3.75 7.98909C3.75 4.52336 6.61767 1.66667 10 1.66667Z" stroke="#171135" stroke-width="1.25"/>
<path d="M15 16.6667C15 17.5872 12.7614 18.3333 10 18.3333C7.23857 18.3333 5 17.5872 5 16.6667" stroke="#171135" stroke-width="1.25" stroke-linecap="round"/>
</svg>
