<svg width="90" height="90" viewBox="0 0 90 90" fill="none" xmlns="http://www.w3.org/2000/svg">
<g clip-path="url(#clip0_3492_20442)">
<path d="M49.9015 40.1198C40.7282 30.9465 40.7282 16.0739 49.9015 6.90062C59.0347 -2.23279 73.7252 -2.31026 82.9495 6.73104C89.9163 13.5596 91.7192 23.6348 88.3604 32.1453C87.7983 33.5694 87.6545 35.1243 87.9413 36.6282L89.3414 43.972C89.6091 45.3762 88.377 46.6083 86.9728 46.3406L79.6292 44.9405C78.1299 44.6546 76.5787 44.7933 75.1593 45.3545C66.7163 48.6924 56.73 46.9483 49.9015 40.1198Z" fill="url(#paint0_linear_3492_20442)"/>
<path d="M87.9571 44.9551C88.0532 44.8589 88.2687 44.5917 88.1923 44.1906L86.792 36.8468C86.4627 35.1198 86.6288 33.3452 87.2724 31.715C90.5759 23.3445 88.5576 13.8657 82.1307 7.5664C77.8914 3.41123 72.3041 1.1397 66.3978 1.17023C60.4924 1.20076 54.9274 3.52981 50.7297 7.72752C50.7295 7.7277 50.7299 7.72734 50.7297 7.72752C42.0276 16.4298 42.0276 30.5893 50.7297 39.2914C57.0258 45.5875 66.4464 47.5398 74.7295 44.2651C76.3497 43.6245 78.1201 43.4602 79.8489 43.7898L87.1926 45.1901C87.5937 45.2667 87.8607 45.0512 87.9571 44.9551Z" fill="url(#paint1_linear_3492_20442)"/>
<path d="M63.4609 27.3027V46.8001C67.3916 47.3119 71.427 46.8315 75.1606 45.3553C76.5799 44.7941 78.1313 44.6554 79.6304 44.9413L81.4454 45.2874L63.4609 27.3027Z" fill="url(#paint2_linear_3492_20442)"/>
<path d="M63.084 79.1787C77.5158 64.747 77.5158 41.3487 63.084 26.917C48.7152 12.5478 25.6038 12.4259 11.0915 26.6501C0.130933 37.393 -2.7053 53.2439 2.57858 66.6327C3.4627 68.8732 3.68911 71.3194 3.23805 73.6854L1.03534 85.2391C0.61411 87.4483 2.55264 89.3867 4.7617 88.9654L16.3151 86.7626C18.6738 86.3129 21.1143 86.531 23.3472 87.4139C36.6302 92.6653 52.341 89.9217 63.084 79.1787Z" fill="url(#paint3_linear_3492_20442)"/>
<path d="M3.21519 86.7851C3.06395 86.6339 2.72478 86.2135 2.84513 85.5825L5.04819 74.0289C5.56613 71.312 5.30496 68.52 4.29254 65.9552C-0.904693 52.7865 2.27054 37.8738 12.3816 27.9636C19.0511 21.4264 27.8413 17.8529 37.1332 17.9009C46.4238 17.9489 55.1789 21.6131 61.783 28.2172C61.7833 28.2175 61.7828 28.217 61.7831 28.2173C75.4737 41.9081 75.4737 64.1843 61.7831 77.8749C51.8778 87.7802 37.057 90.8519 24.0257 85.6998C21.4765 84.692 18.6915 84.4336 15.9715 84.9521L4.41801 87.155C3.78678 87.2755 3.3666 86.9365 3.21519 86.7851Z" fill="url(#paint4_linear_3492_20442)"/>
<path d="M54.9874 85.3128C51.4904 87.2697 47.7445 88.6137 43.9033 89.3448L31.6022 77.0437C30.5354 75.9787 30.0039 74.7267 30.0039 73.2907C30.0039 71.8089 30.5372 70.5443 31.6075 69.5025C32.6778 68.4604 33.9494 67.9395 35.424 67.9395C36.9076 67.9395 38.1703 68.4727 39.2123 69.5377L54.9874 85.3128Z" fill="url(#paint5_linear_3492_20442)"/>
<path d="M73.6788 57.1702C72.7816 65.2097 69.2494 73.0141 63.0838 79.1779C60.7084 81.5533 58.091 83.5367 55.3112 85.1314L32.3675 62.1859C31.8111 61.5465 31.5321 60.3368 31.5321 58.5566C31.5321 55.2169 32.4787 52.3769 34.3597 50.0314L23.9873 39.6502C23.1325 38.9561 22.7051 37.9829 22.7051 36.7309C22.7051 34.5073 23.9095 32.3985 26.3203 30.4063C28.7293 28.4141 32.0884 27.418 36.3978 27.418C40.799 27.418 44.3665 28.5077 47.1023 30.6836C47.5403 31.0333 65.1874 48.6751 73.6788 57.1702Z" fill="url(#paint6_linear_3492_20442)"/>
<path d="M73.6789 57.1702C72.7818 65.2097 69.2495 73.0141 63.084 79.1778C60.7085 81.5533 58.0911 83.5367 55.3113 85.1314L32.5371 62.3554C33.1147 62.8817 34.0542 63.1432 35.3559 63.1432C38.0898 63.1432 39.4569 62.1948 39.4569 60.2927C39.4569 58.8108 39.5133 57.7105 39.63 56.9918C39.7449 56.2748 40.0927 55.4394 40.6738 54.491C41.2514 53.5409 42.1468 52.5782 43.3565 51.6052C48.5861 47.575 51.2035 43.3345 51.2035 38.8855C51.2035 36.4483 50.4529 34.3183 48.9535 32.4922C53.7695 37.2606 66.7611 50.2504 73.6789 57.1702Z" fill="url(#paint7_linear_3492_20442)"/>
<path d="M22.7051 36.7316C22.7051 34.5075 23.9098 32.3994 26.3194 30.4067C28.7282 28.4148 32.0884 27.418 36.398 27.418C40.7993 27.418 44.367 28.5073 47.1014 30.6844C49.8351 32.863 51.2026 35.5967 51.2026 38.8861C51.2026 43.3346 48.5863 47.5746 43.3562 51.6059C42.1461 52.5791 41.2513 53.5409 40.6726 54.4905C40.0924 55.4406 39.7451 56.2744 39.6298 56.9923C39.5134 57.7114 39.456 58.8116 39.456 60.2939C39.456 62.1947 38.0889 63.1437 35.3552 63.1437C33.9185 63.1437 32.9225 62.8245 32.3665 62.1859C31.8106 61.5472 31.5325 60.3375 31.5325 58.5566C31.5325 54.2666 33.0844 50.7978 36.1895 48.1501C36.3284 48.0131 36.9298 47.534 37.9966 46.7131C39.0618 45.8923 39.8037 45.2752 40.2207 44.8647C40.6377 44.4539 41.1002 43.8267 41.6107 42.9814C42.12 42.1365 42.3754 41.2808 42.3754 40.414C42.3754 38.9078 41.7974 37.7554 40.6431 36.9564C39.4883 36.158 37.9878 35.7585 36.1412 35.7585C34.571 35.7585 33.2785 36.0144 32.2629 36.5272C31.2466 37.0397 30.5774 37.6068 30.2541 38.2257C29.9301 38.8458 29.4913 39.4114 28.9377 39.9243C28.3841 40.4371 27.6911 40.693 26.8603 40.693C25.7979 40.693 24.8402 40.3457 23.9863 39.6506C23.1321 38.956 22.7051 37.9827 22.7051 36.7316ZM30.0035 73.2911C30.0035 71.809 30.5379 70.5458 31.6084 69.5034C32.6783 68.461 33.9498 67.9393 35.4249 67.9393C36.9074 67.9393 38.1703 68.4728 39.2127 69.538C40.2554 70.6044 40.7769 71.8554 40.7769 73.2911C40.7769 74.7281 40.2554 75.979 39.2127 77.0447C38.1703 78.1111 36.9074 78.6433 35.4249 78.6433C33.9411 78.6433 32.6674 78.1111 31.6022 77.0447C30.5354 75.979 30.0035 74.7281 30.0035 73.2911Z" fill="url(#paint8_linear_3492_20442)"/>
</g>
<defs>
<linearGradient id="paint0_linear_3492_20442" x1="61.5297" y1="-26.8125" x2="8.65783" y2="-3.31973" gradientUnits="userSpaceOnUse">
<stop stop-color="#B95DFF"/>
<stop offset="1" stop-color="#842AC8"/>
</linearGradient>
<linearGradient id="paint1_linear_3492_20442" x1="71.8282" y1="33.3401" x2="51.887" y2="-3.54225" gradientUnits="userSpaceOnUse">
<stop stop-color="#B95DFF" stop-opacity="0"/>
<stop offset="1" stop-color="#B95DFF"/>
</linearGradient>
<linearGradient id="paint2_linear_3492_20442" x1="85.6468" y1="59.2374" x2="60.0686" y2="33.6592" gradientUnits="userSpaceOnUse">
<stop stop-color="#842AC8" stop-opacity="0"/>
<stop offset="1" stop-color="#842AC8"/>
</linearGradient>
<linearGradient id="paint3_linear_3492_20442" x1="36.9557" y1="21.5008" x2="36.9557" y2="125.763" gradientUnits="userSpaceOnUse">
<stop stop-color="#F9F7FC"/>
<stop offset="1" stop-color="#F0DDFC"/>
</linearGradient>
<linearGradient id="paint4_linear_3492_20442" x1="33.4368" y1="58.413" x2="11.5368" y2="27.6825" gradientUnits="userSpaceOnUse">
<stop stop-color="white" stop-opacity="0"/>
<stop offset="1" stop-color="white"/>
</linearGradient>
<linearGradient id="paint5_linear_3492_20442" x1="47.0926" y1="85.6975" x2="32.787" y2="68.7426" gradientUnits="userSpaceOnUse">
<stop stop-color="#F0DDFC" stop-opacity="0"/>
<stop offset="0.2085" stop-color="#DFCDF1" stop-opacity="0.209"/>
<stop offset="0.6167" stop-color="#B5A4D3" stop-opacity="0.617"/>
<stop offset="1" stop-color="#8779B3"/>
</linearGradient>
<linearGradient id="paint6_linear_3492_20442" x1="43.2606" y1="47.8451" x2="25.776" y2="26.6517" gradientUnits="userSpaceOnUse">
<stop stop-color="#F0DDFC" stop-opacity="0"/>
<stop offset="0.2085" stop-color="#DFCDF1" stop-opacity="0.209"/>
<stop offset="0.6167" stop-color="#B5A4D3" stop-opacity="0.617"/>
<stop offset="1" stop-color="#8779B3"/>
</linearGradient>
<linearGradient id="paint7_linear_3492_20442" x1="57.8804" y1="63.2602" x2="37.5699" y2="47.5418" gradientUnits="userSpaceOnUse">
<stop stop-color="#F0DDFC" stop-opacity="0"/>
<stop offset="0.2085" stop-color="#DFCDF1" stop-opacity="0.209"/>
<stop offset="0.6167" stop-color="#B5A4D3" stop-opacity="0.617"/>
<stop offset="1" stop-color="#8779B3"/>
</linearGradient>
<linearGradient id="paint8_linear_3492_20442" x1="33.9324" y1="-1.8058" x2="-2.25923" y2="7.14435" gradientUnits="userSpaceOnUse">
<stop stop-color="#B95DFF"/>
<stop offset="1" stop-color="#842AC8"/>
</linearGradient>
<clipPath id="clip0_3492_20442">
<rect width="90" height="90" fill="white"/>
</clipPath>
</defs>
</svg>
