<svg width="120" height="120" viewBox="0 0 120 120" fill="none" xmlns="http://www.w3.org/2000/svg">
<g clip-path="url(#clip0_2502_16483)">
<path d="M86 30H34C32.8954 30 32 30.8954 32 32V36C32 37.1046 32.8954 38 34 38H86C87.1046 38 88 37.1046 88 36V32C88 30.8954 87.1046 30 86 30Z" fill="#FEC108"/>
<path fill-rule="evenodd" clip-rule="evenodd" d="M86 30H34C33.9928 24.1456 35.9646 18.4606 39.5952 13.8679C43.2258 9.27521 48.3021 6.04442 54 4.7V4C54 3.46957 54.2107 2.96086 54.5858 2.58579C54.9609 2.21071 55.4696 2 56 2H64C64.5305 2 65.0392 2.21071 65.4142 2.58579C65.7893 2.96086 66 3.46957 66 4V4.7C71.698 6.04442 76.7743 9.27521 80.4049 13.8679C84.0354 18.4606 86.0072 24.1456 86 30Z" fill="#FFDF00"/>
<path fill-rule="evenodd" clip-rule="evenodd" d="M66.452 7.16801C70.5532 9.40548 73.9758 12.7067 76.3599 16.7244C78.7439 20.7422 80.0014 25.3281 80 30H86C86.0072 24.1456 84.0354 18.4606 80.4048 13.8679C76.7742 9.27523 71.698 6.04443 66 4.70001L66.452 7.16801Z" fill="#FEC108"/>
<path fill-rule="evenodd" clip-rule="evenodd" d="M89.9995 48.0201C89.9942 50.1383 89.1491 52.168 87.6493 53.664C86.1496 55.16 84.1178 56.0001 81.9995 56.0001V60.3601C82.0003 61.504 81.7561 62.6349 81.2835 63.6767C80.8109 64.7185 80.1208 65.6471 79.2595 66.4001L72.0395 72.7201L68.2595 76.0201C66.8054 77.2978 64.9353 78.0018 62.9995 78.0001H56.9995C55.0637 78.0018 53.1937 77.2978 51.7395 76.0201L47.9595 72.7201L40.7395 66.4001C39.8783 65.6471 39.1882 64.7185 38.7156 63.6767C38.2429 62.6349 37.9988 61.504 37.9995 60.3601V56.0001C35.8831 56.0001 33.8534 55.1593 32.3568 53.6628C30.8603 52.1662 30.0195 50.1365 30.0195 48.0201C30.0195 45.9036 30.8603 43.8739 32.3568 42.3773C33.8534 40.8808 35.8831 40.0401 37.9995 40.0401V38.0001H81.9995V40.0401C84.1178 40.0401 86.1496 40.8802 87.6493 42.3761C89.1491 43.8721 89.9942 45.9018 89.9995 48.0201Z" fill="#FFE0B2"/>
<path fill-rule="evenodd" clip-rule="evenodd" d="M82 40.0401V38.0001H76V40.0401C78.1164 40.0401 80.1462 40.8808 81.6427 42.3773C83.1393 43.8739 83.98 45.9036 83.98 48.0201C83.98 50.1365 83.1393 52.1662 81.6427 53.6628C80.1462 55.1593 78.1164 56.0001 76 56.0001V60.3601C76.0007 61.504 75.7566 62.6349 75.284 63.6767C74.8114 64.7185 74.1213 65.6471 73.26 66.4001L66.04 72.7201L62.26 76.0201C60.8058 77.2978 58.9358 78.0018 57 78.0001H63C64.936 78.0001 66.806 77.2981 68.26 76.0201L72.04 72.7201L79.26 66.4001C80.1213 65.6471 80.8114 64.7185 81.284 63.6767C81.7566 62.6349 82.0007 61.504 82 60.3601V56.0001C84.1164 56.0001 86.1462 55.1593 87.6427 53.6628C89.1393 52.1662 89.98 50.1365 89.98 48.0201C89.98 45.9036 89.1393 43.8739 87.6427 42.3773C86.1462 40.8808 84.1164 40.0401 82 40.0401Z" fill="#DFC49C"/>
<path fill-rule="evenodd" clip-rule="evenodd" d="M76 86C76 86 72 92 60 92C48 92 44 86 44 86C47.16 82.84 47.84 76.78 47.96 72.72L51.74 76.02C53.194 77.298 55.064 78 57 78H63C64.936 78 66.806 77.298 68.26 76.02L72.04 72.72C72.16 76.78 72.84 82.84 76 86Z" fill="#DFC49C"/>
<path fill-rule="evenodd" clip-rule="evenodd" d="M100 115.86C100.017 116.134 99.9782 116.408 99.8856 116.666C99.793 116.924 99.6486 117.161 99.4614 117.361C99.2741 117.562 99.0479 117.722 98.7966 117.831C98.5453 117.941 98.2742 117.999 98 118H88V108C87.9968 106.94 87.5744 105.925 86.8249 105.175C86.0755 104.426 85.0599 104.003 84 104V88.52C87.1438 89.7673 90.0066 91.6304 92.42 94C96.88 98.66 99.56 108.16 100 115.86Z" fill="#FF9801"/>
<path fill-rule="evenodd" clip-rule="evenodd" d="M92.42 94C90.0066 91.6304 87.1438 89.7673 84 88.52V91.908C84.864 92.536 85.674 93.236 86.42 94C90.88 98.66 93.56 108.16 94 115.86C94.0172 116.134 93.9782 116.408 93.8856 116.666C93.793 116.924 93.6486 117.161 93.4614 117.361C93.2741 117.562 93.0479 117.722 92.7966 117.831C92.5453 117.941 92.2742 117.999 92 118H98C98.2742 117.999 98.5453 117.941 98.7966 117.831C99.0479 117.722 99.2741 117.562 99.4614 117.361C99.6486 117.161 99.793 116.924 99.8856 116.666C99.9782 116.408 100.017 116.134 100 115.86C99.56 108.16 96.88 98.66 92.42 94Z" fill="#F57C00"/>
<path fill-rule="evenodd" clip-rule="evenodd" d="M36 88.52V104C34.9401 104.003 33.9246 104.426 33.1751 105.175C32.4257 105.925 32.0032 106.94 32 108V118H22C21.7258 117.999 21.4547 117.941 21.2034 117.831C20.9521 117.722 20.7259 117.562 20.5387 117.361C20.3514 117.161 20.207 116.924 20.1144 116.666C20.0218 116.408 19.9829 116.134 20 115.86C20.44 108.16 23.12 98.66 27.58 94C29.9934 91.6304 32.8562 89.7673 36 88.52Z" fill="#FF9801"/>
<path fill-rule="evenodd" clip-rule="evenodd" d="M44 86V104H36V86C36 85.4696 36.2107 84.9609 36.5858 84.5858C36.9609 84.2107 37.4696 84 38 84H42C42.5304 84 43.0391 84.2107 43.4142 84.5858C43.7893 84.9609 44 85.4696 44 86ZM84 86V104H76V86C76 85.4696 76.2107 84.9609 76.5858 84.5858C76.9609 84.2107 77.4696 84 78 84H82C82.5304 84 83.0391 84.2107 83.4142 84.5858C83.7893 84.9609 84 85.4696 84 86Z" fill="#0377BC"/>
<path fill-rule="evenodd" clip-rule="evenodd" d="M76 86.0001V104H44V86.0001C44 86.0001 48 92.0001 60 92.0001C72 92.0001 76 86.0001 76 86.0001Z" fill="#FF9801"/>
<path fill-rule="evenodd" clip-rule="evenodd" d="M88 108V118H32V108C32.0032 106.94 32.4256 105.925 33.1751 105.175C33.9245 104.426 34.9401 104.003 36 104H84C85.0599 104.003 86.0755 104.426 86.8249 105.175C87.5744 105.925 87.9968 106.94 88 108Z" fill="#02A9F4"/>
<path fill-rule="evenodd" clip-rule="evenodd" d="M84 104H78C79.0599 104.003 80.0755 104.426 80.8249 105.175C81.5744 105.925 81.9968 106.94 82 108V118H88V108C87.9968 106.94 87.5744 105.925 86.8249 105.175C86.0755 104.426 85.0599 104.003 84 104Z" fill="#0377BC"/>
<path fill-rule="evenodd" clip-rule="evenodd" d="M62.002 68H58.002C57.4715 68 56.9628 68.2107 56.5877 68.5858C56.2127 68.9609 56.002 69.4696 56.002 70C56.002 70.5304 56.2127 71.0391 56.5877 71.4142C56.9628 71.7893 57.4715 72 58.002 72H62.002C62.5324 72 63.0411 71.7893 63.4162 71.4142C63.7912 71.0391 64.002 70.5304 64.002 70C64.002 69.4696 63.7912 68.9609 63.4162 68.5858C63.0411 68.2107 62.5324 68 62.002 68ZM50.002 44C49.4715 44 48.9628 44.2107 48.5877 44.5858C48.2127 44.9609 48.002 45.4696 48.002 46V48C48.002 48.5304 48.2127 49.0391 48.5877 49.4142C48.9628 49.7893 49.4715 50 50.002 50C50.5324 50 51.0411 49.7893 51.4162 49.4142C51.7912 49.0391 52.002 48.5304 52.002 48V46C52.002 45.4696 51.7912 44.9609 51.4162 44.5858C51.0411 44.2107 50.5324 44 50.002 44ZM70.002 50C70.5324 50 71.0411 49.7893 71.4162 49.4142C71.7912 49.0391 72.002 48.5304 72.002 48V46C72.002 45.4696 71.7912 44.9609 71.4162 44.5858C71.0411 44.2107 70.5324 44 70.002 44C69.4715 44 68.9628 44.2107 68.5877 44.5858C68.2127 44.9609 68.002 45.4696 68.002 46V48C68.002 48.5304 68.2127 49.0391 68.5877 49.4142C68.9628 49.7893 69.4715 50 70.002 50ZM58.002 58H62.002C62.5324 58 63.0411 57.7893 63.4162 57.4142C63.7912 57.0391 64.002 56.5304 64.002 56C64.002 55.4696 63.7912 54.9609 63.4162 54.5858C63.0411 54.2107 62.5324 54 62.002 54H58.002C57.4715 54 56.9628 54.2107 56.5877 54.5858C56.2127 54.9609 56.002 55.4696 56.002 56C56.002 56.5304 56.2127 57.0391 56.5877 57.4142C56.9628 57.7893 57.4715 58 58.002 58Z" fill="black"/>
<path d="M86.0012 87.254V86C86.0012 84.9391 85.5798 83.9217 84.8297 83.1716C84.0795 82.4214 83.0621 82 82.0012 82H78.0012C77.2967 82.0043 76.6062 82.197 76.0012 82.558C74.7681 79.7247 74.1185 76.6719 74.0912 73.582L80.5872 67.896C81.6598 66.9573 82.5192 65.8002 83.108 64.5022C83.6969 63.2042 84.0014 61.7953 84.0012 60.37V57.8C85.9384 57.4108 87.7162 56.4544 89.1086 55.0524C90.5009 53.6504 91.445 51.8661 91.8208 49.9262C92.1966 47.9864 91.9871 45.9786 91.219 44.1581C90.451 42.3375 89.159 40.7865 87.5072 39.702C88.2438 39.4027 88.8744 38.8906 89.3186 38.2312C89.7629 37.5719 90.0005 36.7951 90.0012 36V32C89.9989 31.2891 89.8065 30.5917 89.444 29.9801C89.0814 29.3686 88.5619 28.8652 87.9392 28.522C87.6565 22.7354 85.5746 17.1814 81.9839 12.6348C78.3932 8.08828 73.4728 4.77596 67.9092 3.16C67.7172 2.2659 67.2246 1.46461 66.5135 0.889611C65.8024 0.314615 64.9157 0.000641457 64.0012 0L56.0012 0C55.0868 0.000641457 54.2001 0.314615 53.489 0.889611C52.7779 1.46461 52.2853 2.2659 52.0932 3.16C46.5297 4.77596 41.6093 8.08828 38.0186 12.6348C34.4279 17.1814 32.3459 22.7354 32.0632 28.522C31.4406 28.8652 30.9211 29.3686 30.5585 29.9801C30.1959 30.5917 30.0035 31.2891 30.0012 32V36C30.0024 36.7947 30.2402 37.5711 30.6844 38.2301C31.1286 38.8891 31.759 39.4008 32.4952 39.7C30.8428 40.7842 29.5502 42.3354 28.7817 44.1562C28.0132 45.977 27.8035 47.9853 28.1793 49.9256C28.5552 51.8659 29.4995 53.6506 30.8924 55.0527C32.2852 56.4549 34.0635 57.4112 36.0012 57.8V60.372C36.0013 61.7975 36.3062 63.2064 36.8953 64.5044C37.4845 65.8024 38.3443 66.9595 39.4172 67.898L45.9132 73.584C45.8851 76.6734 45.2348 79.7254 44.0012 82.558C43.3963 82.197 42.7057 82.0043 42.0012 82H38.0012C36.9404 82 35.923 82.4214 35.1728 83.1716C34.4227 83.9217 34.0012 84.9391 34.0012 86V87.254C31.0702 88.5404 28.4031 90.3591 26.1352 92.618C21.1332 97.844 18.4472 108 18.0012 115.756C17.9736 116.305 18.0574 116.854 18.2475 117.369C18.4375 117.885 18.73 118.356 19.1072 118.756C19.8572 119.554 20.9072 120.004 22.0012 120H98.0012C98.5426 120.002 99.0786 119.893 99.5761 119.679C100.074 119.465 100.522 119.152 100.893 118.758C101.272 118.357 101.565 117.883 101.756 117.366C101.946 116.848 102.03 116.297 102.001 115.746C101.557 108 98.8712 97.844 93.8732 92.622C91.6038 90.3612 88.9347 88.5411 86.0012 87.254ZM78.0012 86H82.0012V102H78.0012V86ZM46.0012 102V90.4C50.2187 92.9355 55.0838 94.1865 60.0012 94C64.9186 94.1865 69.7838 92.9355 74.0012 90.4V102H46.0012ZM34.0012 36V32H86.0012V36H34.0012ZM44.0012 12.08V22C44.0012 22.5304 44.212 23.0391 44.587 23.4142C44.9621 23.7893 45.4708 24 46.0012 24C46.5317 24 47.0404 23.7893 47.4154 23.4142C47.7905 23.0391 48.0012 22.5304 48.0012 22V9.214C49.2751 8.48045 50.6141 7.8665 52.0012 7.38V18C52.0012 18.5304 52.2119 19.0391 52.587 19.4142C52.9621 19.7893 53.4708 20 54.0012 20C54.5317 20 55.0404 19.7893 55.4155 19.4142C55.7905 19.0391 56.0012 18.5304 56.0012 18V4H64.0012V18C64.0012 18.5304 64.2119 19.0391 64.587 19.4142C64.9621 19.7893 65.4708 20 66.0012 20C66.5317 20 67.0404 19.7893 67.4155 19.4142C67.7905 19.0391 68.0012 18.5304 68.0012 18V7.38C69.3883 7.8665 70.7274 8.48045 72.0012 9.214V22C72.0012 22.5304 72.2119 23.0391 72.587 23.4142C72.9621 23.7893 73.4708 24 74.0012 24C74.5317 24 75.0404 23.7893 75.4155 23.4142C75.7905 23.0391 76.0012 22.5304 76.0012 22V12.08C80.5895 16.1708 83.4247 21.8726 83.9172 28H36.0852C36.5778 21.8726 39.413 16.1708 44.0012 12.08ZM40.0012 60.37V56C40.0012 55.4696 39.7905 54.9609 39.4154 54.5858C39.0404 54.2107 38.5317 54 38.0012 54C36.5866 54.0119 35.2139 53.5205 34.1281 52.6137C33.0424 51.7069 32.3143 50.4436 32.0739 49.0495C31.8336 47.6555 32.0966 46.2213 32.816 45.0033C33.5354 43.7852 34.6643 42.8625 36.0012 42.4V46C36.0012 46.5304 36.212 47.0391 36.587 47.4142C36.9621 47.7893 37.4708 48 38.0012 48C38.5317 48 39.0404 47.7893 39.4154 47.4142C39.7905 47.0391 40.0012 46.5304 40.0012 46V40H80.0012V46C80.0012 46.5304 80.2119 47.0391 80.587 47.4142C80.9621 47.7893 81.4708 48 82.0012 48C82.5317 48 83.0404 47.7893 83.4155 47.4142C83.7905 47.0391 84.0012 46.5304 84.0012 46V42.4C85.3381 42.8625 86.4671 43.7852 87.1865 45.0033C87.9059 46.2213 88.1689 47.6555 87.9285 49.0495C87.6882 50.4436 86.9601 51.7069 85.8743 52.6137C84.7886 53.5205 83.4158 54.0119 82.0012 54C81.4708 54 80.9621 54.2107 80.587 54.5858C80.2119 54.9609 80.0012 55.4696 80.0012 56V60.37C80.0009 61.225 79.8178 62.0701 79.4643 62.8486C79.1107 63.6272 78.5948 64.3211 77.9512 64.884L66.9512 74.516C65.8572 75.4718 64.454 75.999 63.0012 76H57.0012C55.5483 75.9999 54.1448 75.4726 53.0512 74.516L42.0512 64.884C41.4076 64.3211 40.8918 63.6272 40.5382 62.8486C40.1847 62.0701 40.0016 61.225 40.0012 60.37ZM50.4232 77.528C52.2446 79.1207 54.5817 79.9989 57.0012 80H63.0012C65.4232 80 67.7632 79.12 69.5872 77.528L70.3512 76.858C70.6192 80.078 71.6512 83.19 73.3612 85.932C71.6712 87.436 67.6752 90 60.0012 90C52.3272 90 48.3212 87.43 46.6452 85.934C48.3569 83.1906 49.3895 80.0785 49.6572 76.856L50.4232 77.528ZM38.0012 86H42.0012V102H38.0012V86ZM22.0012 115.972C22.3872 109.188 24.7532 99.85 29.0332 95.372C30.491 93.9052 32.1668 92.6727 34.0012 91.718V102.368C32.8354 102.78 31.8254 103.542 31.1094 104.551C30.3934 105.559 30.0064 106.763 30.0012 108V116L22.0012 115.972ZM34.0012 116V108C34.0012 107.47 34.212 106.961 34.587 106.586C34.9621 106.211 35.4708 106 36.0012 106H84.0012C84.5317 106 85.0404 106.211 85.4155 106.586C85.7905 106.961 86.0012 107.47 86.0012 108V116H34.0012ZM90.0012 116V108C89.9961 106.763 89.6091 105.559 88.8931 104.551C88.177 103.542 87.1671 102.78 86.0012 102.368V91.718C87.8384 92.6753 89.5163 93.9113 90.9752 95.382C95.2512 99.85 97.6172 109.188 98.0012 116H90.0012Z" fill="black"/>
<path fill-rule="evenodd" clip-rule="evenodd" d="M55.1744 65.2C56.7104 65.8 58.3544 66.088 60.0024 66.046C61.651 66.0891 63.2917 65.8028 64.8284 65.204C65.3119 64.9849 65.6885 64.5828 65.8755 64.086C66.0625 63.5892 66.0444 63.0385 65.8254 62.555C65.6063 62.0715 65.2041 61.6949 64.7073 61.5079C64.2106 61.3209 63.6599 61.3389 63.1764 61.558C61.1108 62.207 58.8959 62.207 56.8304 61.558C56.3474 61.3384 55.797 61.3197 55.3002 61.5059C54.8034 61.6921 54.401 62.068 54.1814 62.551C53.9618 63.034 53.943 63.5844 54.1292 64.0812C54.3155 64.5779 54.6914 64.9804 55.1744 65.2Z" fill="black"/>
</g>
<defs>
<clipPath id="clip0_2502_16483">
<rect width="120" height="120" fill="white"/>
</clipPath>
</defs>
</svg>
