<svg width="15" height="18" viewBox="0 0 15 18" fill="none" xmlns="http://www.w3.org/2000/svg">
<path d="M0.75 18V17.25C0.75 15.6587 1.38214 14.1326 2.50736 13.0074C3.63258 11.8821 5.1587 11.25 6.75 11.25H8.25C9.8413 11.25 11.3674 11.8821 12.4926 13.0074C13.6179 14.1326 14.25 15.6587 14.25 17.25V18M11.25 4.5C11.25 5.49456 10.8549 6.44839 10.1517 7.15165C9.44839 7.85491 8.49456 8.25 7.5 8.25C6.50544 8.25 5.55161 7.85491 4.84835 7.15165C4.14509 6.44839 3.75 5.49456 3.75 4.5C3.75 3.50544 4.14509 2.55161 4.84835 1.84835C5.55161 1.14509 6.50544 0.75 7.5 0.75C8.49456 0.75 9.44839 1.14509 10.1517 1.84835C10.8549 2.55161 11.25 3.50544 11.25 4.5Z" stroke="black" stroke-width="1.5"/>
</svg>
